<?xml version="1.0" encoding="UTF-8"?>
<svg id="Warstwa_1" xmlns="http://www.w3.org/2000/svg" version="1.1" xmlns:xlink="http://www.w3.org/1999/xlink" viewBox="38 38 409 264">
  <!-- Generator: Adobe Illustrator 30.4.0, SVG Export Plug-In . SVG Version: 2.1.4 Build 226)  -->
  <defs>
    <style>
      .st0 {
        fill: url(#Gradient_bez_nazwy_8422);
      }

      .st1 {
        fill: url(#Gradient_bez_nazwy_8411);
      }

      .st2 {
        fill: url(#Gradient_bez_nazwy_8417);
      }

      .st3 {
        fill: url(#Gradient_bez_nazwy_8421);
      }

      .st4 {
        fill: url(#Gradient_bez_nazwy_8420);
      }

      .st5 {
        fill: url(#Gradient_bez_nazwy_8423);
      }

      .st6 {
        fill: url(#Gradient_bez_nazwy_848);
      }

      .st7 {
        fill: url(#Gradient_bez_nazwy_8414);
      }

      .st8 {
        fill: #0a1f4a;
      }

      .st9 {
        fill: url(#Gradient_bez_nazwy_8419);
      }

      .st10 {
        fill: url(#Gradient_bez_nazwy_8413);
      }

      .st11 {
        fill: url(#Gradient_bez_nazwy_841);
      }

      .st12 {
        fill: url(#Gradient_bez_nazwy_845);
      }

      .st13 {
        fill: url(#Gradient_bez_nazwy_8418);
      }

      .st14 {
        fill: url(#Gradient_bez_nazwy_8416);
      }

      .st15 {
        fill: url(#Gradient_bez_nazwy_846);
      }

      .st16 {
        fill: url(#Gradient_bez_nazwy_847);
      }

      .st17 {
        fill: url(#Gradient_bez_nazwy_842);
      }

      .st18 {
        fill: url(#Gradient_bez_nazwy_843);
      }

      .st19 {
        fill: url(#Gradient_bez_nazwy_8412);
      }

      .st20 {
        fill: url(#Gradient_bez_nazwy_849);
      }

      .st21 {
        fill: url(#Gradient_bez_nazwy_8415);
      }

      .st22 {
        fill: url(#Gradient_bez_nazwy_8410);
      }

      .st23 {
        fill: url(#Gradient_bez_nazwy_844);
      }

      .st24 {
        fill: url(#Gradient_bez_nazwy_84);
      }
    </style>
    <linearGradient id="Gradient_bez_nazwy_84" data-name="Gradient bez nazwy 84" x1="149.28" y1="236.74" x2="229.82" y2="42.9" gradientUnits="userSpaceOnUse">
      <stop offset="0" stop-color="#fff"/>
      <stop offset=".06" stop-color="#c4e6ff"/>
      <stop offset=".73" stop-color="#227aff"/>
      <stop offset="1" stop-color="#0a1f4a"/>
    </linearGradient>
    <linearGradient id="Gradient_bez_nazwy_841" data-name="Gradient bez nazwy 84" x1="141.54" y1="233.6" x2="222.17" y2="39.55" xlink:href="#Gradient_bez_nazwy_84"/>
    <linearGradient id="Gradient_bez_nazwy_842" data-name="Gradient bez nazwy 84" x1="137.1" y1="231.87" x2="217.87" y2="37.47" xlink:href="#Gradient_bez_nazwy_84"/>
    <linearGradient id="Gradient_bez_nazwy_843" data-name="Gradient bez nazwy 84" x1="136.68" y1="231.99" x2="217.82" y2="36.72" xlink:href="#Gradient_bez_nazwy_84"/>
    <linearGradient id="Gradient_bez_nazwy_844" data-name="Gradient bez nazwy 84" x1="141.21" y1="233.17" x2="221.69" y2="39.48" xlink:href="#Gradient_bez_nazwy_84"/>
    <linearGradient id="Gradient_bez_nazwy_845" data-name="Gradient bez nazwy 84" x1="150.37" y1="236.77" x2="230.3" y2="44.4" xlink:href="#Gradient_bez_nazwy_84"/>
    <linearGradient id="Gradient_bez_nazwy_846" data-name="Gradient bez nazwy 84" x1="162.06" y1="241.85" x2="242.25" y2="48.87" xlink:href="#Gradient_bez_nazwy_84"/>
    <linearGradient id="Gradient_bez_nazwy_847" data-name="Gradient bez nazwy 84" x1="175.4" y1="247.53" x2="255.72" y2="54.21" xlink:href="#Gradient_bez_nazwy_84"/>
    <linearGradient id="Gradient_bez_nazwy_848" data-name="Gradient bez nazwy 84" x1="189.87" y1="253.64" x2="270.3" y2="60.07" xlink:href="#Gradient_bez_nazwy_84"/>
    <linearGradient id="Gradient_bez_nazwy_849" data-name="Gradient bez nazwy 84" x1="207.81" y1="261.21" x2="288.34" y2="67.4" xlink:href="#Gradient_bez_nazwy_84"/>
    <linearGradient id="Gradient_bez_nazwy_8410" data-name="Gradient bez nazwy 84" x1="221.37" y1="266.97" x2="302" y2="72.91" xlink:href="#Gradient_bez_nazwy_84"/>
    <linearGradient id="Gradient_bez_nazwy_8411" data-name="Gradient bez nazwy 84" x1="233.38" y1="272.15" x2="314.16" y2="77.73" xlink:href="#Gradient_bez_nazwy_84"/>
    <linearGradient id="Gradient_bez_nazwy_8412" data-name="Gradient bez nazwy 84" x1="243.21" y1="276.63" x2="324.31" y2="81.45" xlink:href="#Gradient_bez_nazwy_84"/>
    <linearGradient id="Gradient_bez_nazwy_8413" data-name="Gradient bez nazwy 84" x1="249.92" y1="278.93" x2="330.4" y2="85.24" xlink:href="#Gradient_bez_nazwy_84"/>
    <linearGradient id="Gradient_bez_nazwy_8414" data-name="Gradient bez nazwy 84" x1="253.04" y1="278.98" x2="332.71" y2="87.24" xlink:href="#Gradient_bez_nazwy_84"/>
    <linearGradient id="Gradient_bez_nazwy_8415" data-name="Gradient bez nazwy 84" x1="252.21" y1="279" x2="332.21" y2="86.47" xlink:href="#Gradient_bez_nazwy_84"/>
    <linearGradient id="Gradient_bez_nazwy_8416" data-name="Gradient bez nazwy 84" x1="248.84" y1="277.77" x2="328.98" y2="84.88" xlink:href="#Gradient_bez_nazwy_84"/>
    <linearGradient id="Gradient_bez_nazwy_8417" data-name="Gradient bez nazwy 84" x1="244.18" y1="275.92" x2="324.41" y2="82.83" xlink:href="#Gradient_bez_nazwy_84"/>
    <linearGradient id="Gradient_bez_nazwy_8418" data-name="Gradient bez nazwy 84" x1="238.26" y1="273.49" x2="318.54" y2="80.3" xlink:href="#Gradient_bez_nazwy_84"/>
    <linearGradient id="Gradient_bez_nazwy_8419" data-name="Gradient bez nazwy 84" x1="231.46" y1="270.72" x2="311.78" y2="77.4" xlink:href="#Gradient_bez_nazwy_84"/>
    <linearGradient id="Gradient_bez_nazwy_8420" data-name="Gradient bez nazwy 84" x1="221.77" y1="266.71" x2="302.12" y2="73.32" xlink:href="#Gradient_bez_nazwy_84"/>
    <linearGradient id="Gradient_bez_nazwy_8421" data-name="Gradient bez nazwy 84" x1="197.81" y1="256.79" x2="278.21" y2="63.3" xlink:href="#Gradient_bez_nazwy_84"/>
    <linearGradient id="Gradient_bez_nazwy_8422" data-name="Gradient bez nazwy 84" x1="180.46" y1="249.61" x2="260.89" y2="56.03" xlink:href="#Gradient_bez_nazwy_84"/>
    <linearGradient id="Gradient_bez_nazwy_8423" data-name="Gradient bez nazwy 84" x1="162.73" y1="242.28" x2="243.21" y2="48.58" xlink:href="#Gradient_bez_nazwy_84"/>
  </defs>
  <g>
    <path class="st24" d="M193.83,151.99l13.01-49.28c.92-3.47-1.82-6.82-5.37-6.56h-.04c-2.6.19-4.65,2.3-4.79,4.92l-2.81,50.91Z"/>
    <path class="st11" d="M186.43,160.75l-1.03-43.43c-.08-3.32-3.31-5.62-6.43-4.59h0c-2.45.81-3.86,3.41-3.22,5.94l10.68,42.08Z"/>
    <path class="st17" d="M181.76,170.37l-13.94-36.23c-1.31-3.4-5.68-4.25-8.15-1.59l-.15.16c-1.61,1.74-1.77,4.38-.39,6.3l22.62,31.36Z"/>
    <path class="st18" d="M180.52,179.65l-25.93-27.8c-1.97-2.11-5.37-1.78-6.91.66h0c-1.29,2.05-.72,4.76,1.29,6.09l31.56,21.05Z"/>
    <path class="st23" d="M182.69,188.5l-34.11-16.59c-2.5-1.21-5.45.28-5.99,3.02h0c-.45,2.27.97,4.49,3.21,5.01l36.9,8.56Z"/>
    <path class="st12" d="M187.45,196.58l-35.5-4.67c-2.81-.37-5.16,2.12-4.65,4.94h0c.39,2.17,2.37,3.68,4.54,3.45l35.61-3.72Z"/>
    <path class="st15" d="M194.17,202.76l-32.41,6.09c-2.64.5-3.95,3.54-2.51,5.83h0c1,1.6,3.01,2.21,4.73,1.45l30.19-13.37Z"/>
    <path class="st16" d="M202.08,207.75l-25.76,14.92c-2.08,1.2-2.28,4.15-.4,5.63h0c1.3,1.03,3.15.95,4.36-.18l21.8-20.37Z"/>
    <path class="st6" d="M212.38,210.76l-17.47,19.98c-1.57,1.8-1.03,4.61,1.09,5.69h0c1.8.91,4,.16,4.87-1.68l11.5-23.99Z"/>
    <path class="st20" d="M223.6,211.36l-8.55,23.12c-.87,2.35.54,4.93,2.97,5.44h0c2.47.52,4.81-1.34,4.88-3.89l.71-24.67Z"/>
    <path class="st22" d="M235.6,208.95l.32,26.34c.03,2.26,1.85,4.07,4.08,4.07h0c2.79,0,4.75-2.76,3.87-5.43l-8.27-24.99Z"/>
    <path class="st1" d="M246.94,204.05l10.64,26.75c.84,2.12,3.23,3.14,5.32,2.28l.17-.07c2.53-1.03,3.36-4.23,1.66-6.39l-17.78-22.58Z"/>
    <path class="st19" d="M256.63,197.24l21.92,24.7c1.69,1.91,4.61,2.02,6.44.25h0c2.1-2.03,1.77-5.52-.68-7.1l-27.67-17.85Z"/>
    <path class="st10" d="M264.2,187.96l33.43,19.37c2.23,1.29,5.09.47,6.3-1.83h0c1.36-2.58.03-5.77-2.74-6.59l-36.98-10.95Z"/>
    <path class="st7" d="M269.28,177.28l42.83,11.53c2.78.75,5.56-1.16,5.9-4.04h0c.33-2.75-1.72-5.2-4.46-5.33l-44.27-2.16Z"/>
    <path class="st21" d="M271.32,166.62l51.77.94c2.75.05,4.88-2.43,4.44-5.17h0c-.41-2.6-2.83-4.37-5.4-3.95l-50.8,8.19Z"/>
    <path class="st14" d="M271.32,156.54l57.73-10.4c3.02-.54,4.75-3.78,3.56-6.63h0c-.98-2.34-3.6-3.51-5.98-2.67l-55.31,19.69Z"/>
    <path class="st2" d="M271.32,145.94l60.99-21.66c3.11-1.11,4.28-4.94,2.31-7.62h0c-1.44-1.97-4.1-2.58-6.24-1.42l-57.06,30.7Z"/>
    <path class="st13" d="M267.69,136.61l68.27-34.91c2.46-1.26,3.17-4.48,1.47-6.68h0c-1.41-1.81-3.95-2.23-5.86-.96l-63.88,42.55Z"/>
    <path class="st9" d="M264.63,127.1l72.33-48.79c2.98-2.01,3.16-6.38.34-8.62l-.07-.05c-1.99-1.58-4.8-1.52-6.72.14l-65.88,57.33Z"/>
    <path class="st4" d="M250.79,126.58l89.85-77.18c2.66-2.29,2.43-6.51-.47-8.49h0c-2.11-1.44-4.94-1.15-6.72.68l-82.66,84.99Z"/>
    <path class="st3" d="M233.78,131.85l57.75-63.09c2.41-2.63,1.61-6.87-1.6-8.42h0c-2.3-1.11-5.07-.4-6.56,1.7l-49.59,69.81Z"/>
    <path class="st0" d="M217.11,138.96l43.36-59.89c2.55-3.53.37-8.52-3.93-9h0c-2.31-.25-4.53.95-5.6,3.03l-33.84,65.86Z"/>
    <path class="st5" d="M203.95,145.94l28.32-57.58c1.71-3.47-.79-7.55-4.63-7.55h0c-2.27,0-4.27,1.49-4.94,3.69l-18.75,61.44Z"/>
  </g>
  <g>
    <path class="st8" d="M40,260.79h9.23v15.89h.25c6.02-5.31,12.05-10.58,18.07-15.89h10.84c-6.07,5.56-12.1,11.07-18.17,16.63,6.32,7.23,12.7,14.51,19.02,21.75h-11.19c-4.72-5.22-9.39-10.38-14.1-15.6-1.56,1.53-3.16,3-4.72,4.53v11.07h-9.23v-38.38Z"/>
    <path class="st8" d="M101.26,260.79h10.79l17.77,38.38h-9.79c-1.46-2.9-2.91-5.85-4.37-8.76h-18.22c-1.46,2.9-2.91,5.85-4.37,8.76h-9.59l17.77-38.38ZM111.55,281.89c-1.66-3.39-3.26-6.89-4.92-10.53h-.15c-1.66,3.64-3.26,7.13-4.92,10.53h9.99Z"/>
    <path class="st8" d="M134.74,260.79h19.82c9.18,0,14.3,4.13,14.3,9.89,0,3.74-2.46,7.48-7.48,8.71v.1c5.12.89,9.18,3.39,9.18,9.1,0,8.76-9.39,10.58-16.21,10.58h-19.62v-38.38ZM151.6,275.99c3.46,0,7.58-.25,7.58-3.59s-4.17-3.54-7.48-3.54h-7.73v7.13h7.63ZM152.45,291.09c3.41,0,8.23-.25,8.23-3.79s-4.72-3.79-8.03-3.79h-8.68v7.58h8.48Z"/>
    <path class="st8" d="M177.7,260.79h9.23v38.38h-9.23v-38.38Z"/>
    <path class="st8" d="M194.86,280.02c0-12.3,10.69-20.02,23.54-20.02,8.93,0,17.67,3.89,20.78,11.46l-4.52,1.67c-2.81-5.56-9.03-8.86-16.26-8.86-9.84,0-18.22,5.95-18.22,15.89,0,10.73,9.59,15.55,18.92,15.55s15.16-4.72,17.37-10.97l4.57,1.48c-3.11,8.31-10.69,13.78-22.33,13.78-13.9,0-23.84-8.12-23.84-19.98Z"/>
    <path class="st8" d="M248.46,260.79h5.02v16.97h26.45v-16.97h4.97v38.38h-4.97v-17.07h-26.45v17.07h-5.02v-38.38Z"/>
    <path class="st8" d="M297.14,260.79h29.71v4.18h-24.69v12.35h23.49v4.38h-23.49v13.19h25.3v4.28h-30.31v-38.38Z"/>
    <path class="st8" d="M336.69,260.79h6.12c6.02,10.58,12.05,21.16,18.07,31.73h.1c6.02-10.58,12.05-21.16,18.07-31.73h6.12v38.38h-5.07v-29.62h-.2c-5.62,9.89-11.19,19.73-16.81,29.62h-4.37c-5.62-9.89-11.14-19.73-16.76-29.62h-.2v29.62h-5.07v-38.38Z"/>
    <path class="st8" d="M397.42,260.79h5.02v38.38h-5.02v-38.38Z"/>
    <path class="st8" d="M414.69,260.79h29.71v4.18h-24.69v12.35h23.49v4.38h-23.49v13.19h25.3v4.28h-30.31v-38.38Z"/>
  </g>
</svg>
